<?xml version="1.0" standalone="no"?>
<!DOCTYPE svg PUBLIC "-//W3C//DTD SVG 20010904//EN"
 "http://www.w3.org/TR/2001/REC-SVG-20010904/DTD/svg10.dtd">
<svg version="1.0" xmlns="http://www.w3.org/2000/svg"
 width="512.000000pt" height="512.000000pt" viewBox="0 0 512.000000 512.000000"
 preserveAspectRatio="xMidYMid meet">
<metadata>
Created by potrace 1.14, written by Peter Selinger 2001-2017
</metadata>
<g transform="translate(0.000000,512.000000) scale(0.100000,-0.100000)"
fill="#000000" stroke="none">
<path d="M2383 5100 c-268 -70 -462 -248 -546 -500 -30 -89 -37 -136 -41 -252
-1 -49 -4 -90 -7 -92 -2 -2 -31 -6 -64 -8 -100 -9 -179 -61 -227 -149 l-23
-44 -3 -502 -3 -503 -62 -1 c-34 0 -71 -2 -82 -3 -11 -2 -45 -6 -75 -11 -151
-20 -339 -84 -493 -168 -357 -195 -637 -567 -721 -957 -9 -41 -19 -88 -22
-105 -4 -16 -8 -133 -10 -260 -2 -191 1 -246 16 -325 37 -189 78 -306 158
-452 214 -395 600 -670 1047 -749 92 -16 201 -17 1335 -17 1155 0 1241 1 1335
18 130 24 127 23 233 59 473 158 845 572 957 1066 26 115 30 169 30 405 -1
249 -9 310 -71 499 -155 475 -581 861 -1064 965 -115 24 -128 26 -230 32 -52
3 -96 7 -97 8 -2 1 -3 223 -3 492 l-1 490 -23 50 c-45 96 -124 151 -234 162
l-66 7 -2 90 c-4 177 -47 320 -135 445 -104 147 -242 248 -414 301 -100 31
-293 35 -392 9z m327 -336 c186 -73 285 -230 285 -449 l0 -60 -435 0 -435 0 0
55 c-1 96 14 171 47 237 54 109 157 196 273 229 65 18 205 12 265 -12z m613
-1447 c-1 -331 -2 -612 -2 -624 l-1 -23 -760 0 -760 0 0 625 0 625 763 0 762
0 -2 -603z m435 -602 c379 -30 734 -274 912 -625 62 -124 91 -221 116 -388 2
-15 4 -94 4 -177 1 -137 -2 -184 -16 -255 -2 -14 -6 -36 -9 -50 -10 -54 -49
-160 -89 -245 -106 -225 -291 -412 -515 -523 -104 -52 -132 -62 -231 -87 -71
-19 -81 -20 -155 -30 -66 -9 -2370 -8 -2432 0 -104 14 -161 28 -246 57 -387
132 -698 501 -753 893 -3 28 -8 59 -11 70 -5 25 -5 313 1 340 2 11 7 45 11 75
10 76 60 231 102 314 165 328 448 541 827 622 11 3 60 7 109 11 l87 6 0 -84
c0 -67 5 -94 24 -134 28 -59 74 -108 130 -138 l41 -22 881 -3 c878 -2 881 -2
932 19 58 24 123 85 148 138 11 22 19 69 21 121 5 99 8 111 25 105 7 -2 46 -6
86 -10z"/>
<path d="M2500 3583 c-43 -17 -68 -40 -88 -78 -13 -24 -16 -68 -17 -220 -1
-209 4 -246 43 -289 83 -89 225 -67 274 44 13 30 18 390 6 436 -24 92 -131
144 -218 107z"/>
<path d="M1399 1997 c-52 -27 -79 -62 -88 -113 -4 -22 -7 -220 -6 -440 l1
-402 27 -40 c70 -107 225 -101 284 11 15 28 17 79 18 446 0 429 -2 459 -42
503 -48 53 -130 68 -194 35z"/>
<path d="M3597 2006 c-49 -18 -76 -42 -96 -87 -14 -31 -16 -89 -16 -455 1
-372 3 -423 18 -451 59 -112 214 -118 284 -11 l27 41 1 406 c1 223 -2 421 -6
440 -20 93 -123 149 -212 117z"/>
<path d="M2505 1898 c-38 -13 -72 -44 -93 -83 -14 -26 -16 -75 -17 -334 -1
-369 4 -389 100 -432 90 -40 198 10 223 105 5 17 8 166 7 331 -1 254 -4 305
-17 330 -42 78 -122 111 -203 83z"/>
<path d="M1945 1838 c-36 -20 -66 -52 -81 -87 -11 -26 -14 -91 -14 -283 0
-228 2 -252 20 -288 31 -60 73 -85 146 -85 51 0 66 4 97 28 66 50 67 54 64
355 -2 257 -3 272 -23 299 -37 49 -82 73 -138 73 -28 0 -60 -6 -71 -12z"/>
<path d="M850 1777 c-29 -15 -51 -37 -66 -65 -21 -39 -22 -53 -20 -250 1 -204
2 -209 26 -244 13 -20 37 -44 53 -53 57 -34 155 -22 198 24 47 51 51 71 47
294 -3 200 -4 214 -25 243 -50 71 -137 91 -213 51z"/>
<path d="M3035 1781 c-22 -10 -51 -33 -65 -52 -24 -33 -25 -39 -28 -238 -3
-172 -1 -211 13 -248 49 -126 235 -132 294 -9 19 38 21 61 21 234 0 202 -7
244 -48 283 -51 46 -126 59 -187 30z"/>
<path d="M4135 1785 c-52 -18 -93 -67 -100 -120 -4 -22 -5 -126 -3 -230 3
-165 5 -194 22 -217 49 -73 159 -96 230 -48 67 46 75 77 73 310 -2 186 -4 208
-22 240 -38 64 -125 93 -200 65z"/>
</g>
</svg>
